<?xml version="1.0" encoding="utf-8"?>
<!-- Generator: Adobe Illustrator 26.4.0, SVG Export Plug-In . SVG Version: 6.00 Build 0)  -->
<svg version="1.1" id="Layer_1" xmlns="http://www.w3.org/2000/svg" xmlns:xlink="http://www.w3.org/1999/xlink" x="0px" y="0px"
	 viewBox="0 0 110 121" style="enable-background:new 0 0 110 121;" xml:space="preserve">
<style type="text/css">
	.st0{fill:#959595;}
	.st1{enable-background:new    ;}
	.st2{fill:#FFFFFF;}
	.st3{opacity:0.3;fill:#FFFFFF;enable-background:new    ;}
	.st4{fill:#505050;}
</style>
<g id="Timer_Toast_Day_11_" transform="translate(-497.2 -2696)">
	<g id="Group_295892" transform="translate(-11.3 1316)">
		<g id="Timer_10days" transform="translate(508.5 1380)">
			<g id="Group_295904" transform="translate(0 -7)">
				<g id="Group_295909" transform="translate(-28)">
					<g id="Group_295917" transform="translate(-9)">
						<path id="Path_595721" class="st0" d="M42,7h105v121H42c-2.8,0-5-2.3-5-5.1V12.1C37,9.3,39.2,7,42,7z"/>
						<g id="Group_295916" transform="translate(-564.276 -1234)">
							<g id="Group_295843" transform="translate(92.5 -133)">
								<g class="st1">
									<path class="st2" d="M540.1,1465.5v-0.7h3.9v-2.5h0.8v2.5h3.9v0.7H540.1z M548,1462.6c-1.7-0.5-3.1-1.7-3.6-2.8
										c-0.4,1.1-1.8,2.3-3.5,2.8l-0.4-0.7c1.7-0.3,3.6-1.7,3.6-3.3v-0.7h0.9v0.7c0,1.7,2,3,3.6,3.3L548,1462.6z"/>
									<path class="st2" d="M549.6,1465.5v-0.7h8.7v0.7H549.6z M550.4,1458.9v-0.7h7.1v0.7H550.4z M550.4,1462.9v-0.7h1.6
										l-0.3-2.7l0.9-0.1l0.2,2.8h2.4l0.3-2.8l0.8,0.1l-0.4,2.7h1.6v0.7H550.4z"/>
									<path class="st2" d="M559.2,1465.5v-0.7h8.7v0.7H559.2z M561.1,1460.9v1.5h5.7v0.7h-6.6v-5h6.5v0.7h-5.6v1.4h5.5v0.7H561.1
										z"/>
									<path class="st2" d="M570.7,1466v-3.2c-0.8,0.1-1.5,0.1-2.1,0.1c0-0.2-0.1-0.5-0.1-0.7c0.8,0,1.8,0,2.7-0.1
										c0.9,0,1.8-0.1,2.4-0.2c0,0.2,0.1,0.4,0.1,0.6c-0.6,0.1-1.4,0.2-2.2,0.2v3.2H570.7z M571.1,1461.4c-1.1,0-2.1-0.7-2.1-1.8
										c0-1.1,0.9-1.8,2.1-1.8c1.1,0,2.1,0.7,2.1,1.8C573.1,1460.7,572.2,1461.4,571.1,1461.4z M571.1,1458.5
										c-0.7,0-1.3,0.5-1.3,1.1c0,0.7,0.6,1.1,1.3,1.1s1.3-0.5,1.3-1.1C572.3,1458.9,571.8,1458.5,571.1,1458.5z M572.4,1463.4
										h1.8v-6h0.8v8.9h-0.8v-2.2h-1.8V1463.4z M576,1466.8v-9.6h0.8v9.6H576z"/>
									<path class="st2" d="M580.7,1457.8c1.5,0,2.3,1.2,2.4,3h2.1v-3.7h0.8v9.6h-0.8v-5.2h-2.1c-0.1,1.8-0.9,3.1-2.4,3.1
										c-1.6,0-2.4-1.4-2.4-3.4C578.3,1459.2,579.2,1457.8,580.7,1457.8z M580.7,1458.6c-1,0-1.6,1.1-1.6,2.7
										c0,1.6,0.6,2.7,1.6,2.7c0.9,0,1.6-1.1,1.6-2.7C582.3,1459.7,581.7,1458.6,580.7,1458.6z"/>
								</g>
								<g class="st1">
									<path class="st2" d="M554.8,1478.8c-1-0.5-2.1-1.6-2.4-2.6c-0.3,1-1.4,2.3-2.4,2.8l-0.5-0.6c1.2-0.6,2.5-2.1,2.5-3.8v-0.3
										h-2.2v-0.7h5.3v0.7h-2.2v0.3c0,1.7,1.4,3.1,2.5,3.6L554.8,1478.8z M551,1472.5v-0.7h2.9v0.7H551z M557,1475.9v4.9h-0.8
										v-9.6h0.8v4h1.6v0.7H557z"/>
									<path class="st2" d="M560.8,1475.9c1.3,0,3-0.1,3.9-0.3l0.1,0.7c-1.1,0.2-2.9,0.3-4.6,0.3h-0.8v-4.6h4.4v0.7h-3.6v3.2
										H560.8z M560.6,1480.4v-2.9h0.8v2.2h5.5v0.7H560.6z M566.5,1474.6v3.5h-0.8v-7h0.8v2.8h1.5v0.7H566.5z"/>
									<path class="st2" d="M572,1476.6c-1.1,0.1-2.5,0.1-3.1,0.1l-0.1-0.7c0.7,0,1.8,0,2.8,0v-1.1h-2v-3.1h4.8v0.7h-3.9v1.7h4
										v0.7h-2.1v1.1c1-0.1,2-0.2,2.7-0.2l0.1,0.7C574.3,1476.5,573.1,1476.6,572,1476.6z M570.3,1480.6v-3.2h6.3v3.2H570.3z
										 M575.7,1478.2h-4.6v1.8h4.6V1478.2z M575.7,1477v-5.8h0.8v5.8H575.7z"/>
								</g>
							</g>
							<g id="Group_295844" transform="translate(618.277 1257)">
								<path id="Rectangle_1403" class="st3" d="M4,4v51.1h67.4V4l0,0H4 M4,0h67.4c2.2,0,4,1.8,4,4v51.1c0,2.2-1.8,4-4,4H4
									c-2.2,0-4-1.8-4-4V4C0,1.8,1.8,0,4,0z"/>
								<path id="Path_595697" class="st4" d="M3.7,0h68.1c2,0,3.7,1.7,3.7,3.7v3.9H0V3.7C0,1.7,1.6,0,3.7,0z"/>
								<circle id="Ellipse_1" class="st2" cx="4.6" cy="3.8" r="1.9"/>
								<circle id="Ellipse_2" class="st2" cx="10.6" cy="3.8" r="1.9"/>
								<circle id="Ellipse_3" class="st2" cx="16.5" cy="3.8" r="1.9"/>
								<g id="Group_295095" transform="translate(23.202 16.347)">
									<path id="Ellipse_4" class="st2" d="M15.1,4C9,4,4,9,4,15.1s5,11.1,11.1,11.1s11.1-5,11.1-11.1c0-2.9-1.2-5.8-3.2-7.8
										C20.9,5.2,18,4,15.1,4 M15.1,0c8.3,0,15.1,6.8,15.1,15.1s-6.8,15.1-15.1,15.1S0,23.4,0,15.1c0,0,0,0,0,0
										C0,6.8,6.8,0,15.1,0z"/>
									<path id="Line_1" class="st2" d="M7.2,25.8L4.4,23L23,4.4l2.8,2.8L7.2,25.8z"/>
								</g>
							</g>
						</g>
					</g>
				</g>
			</g>
		</g>
	</g>
</g>
</svg>
